<svg width="30px" height="30px" id="Ebene_1" data-name="Ebene 1" xmlns="http://www.w3.org/2000/svg" viewBox="0 0 43.111 30.778">
  <title>dashboard</title>
  <g>
    <path d="M21.466,28.17H1.969c-1.063,0-1.478-.409-1.478-1.461V1.851C.491.787.9.386,1.969.386q19.518,0,39.036,0c1.057,0,1.465.414,1.465,1.486q0,12.407,0,24.813c0,1.079-.414,1.485-1.508,1.485Zm.007-.724H40.835c.823,0,.9-.07.9-.869V1.942c0-.741-.074-.817-.8-.817H2.026c-.725,0-.811.087-.811.814V26.574c0,.794.081.872.9.872Z"/>
    <path d="M21.5,29.632q9.528,0,19.055,0c.283,0,.712-.132.725.341.015.5-.424.391-.728.391q-19.1.006-38.2,0c-.118,0-.263.04-.348-.013-.141-.089-.333-.235-.337-.363s.2-.277.339-.347a1.073,1.073,0,0,1,.437-.016Z"/>
    <path d="M38.655,15.99A6.616,6.616,0,1,1,31.973,9.4,6.6,6.6,0,0,1,38.655,15.99ZM26.23,15.659h.515q2.436,0,4.871,0c.7,0,.866.247.6.908-.54,1.355-1.086,2.707-1.627,4.061-.124.309-.24.622-.359.931A5.8,5.8,0,0,0,36.685,19.6a5.868,5.868,0,0,0-6.6-9.12A5.75,5.75,0,0,0,26.23,15.659Zm-.011.744a5.694,5.694,0,0,0,3.326,4.861L31.487,16.4Z"/>
    <path d="M12.3,6.708H5.614c-.118,0-.263.041-.348-.012-.142-.089-.313-.226-.342-.369-.018-.092.18-.257.312-.338.087-.054.23-.02.348-.02h13.59c.269,0,.542.04.533.378s-.273.364-.547.363Q15.73,6.706,12.3,6.708Z"/>
    <path d="M12.4,15.955H5.671c-.118,0-.26.039-.349-.012-.131-.076-.312-.218-.311-.33s.168-.27.3-.354c.084-.054.229-.013.347-.014H19.113c.059,0,.119,0,.177,0,.265-.018.5.047.506.353s-.224.362-.491.36c-.841-.009-1.682,0-2.523,0Z"/>
    <path d="M10.126,11.494H5.568c-.117,0-.26.037-.348-.015-.134-.082-.315-.222-.32-.344s.171-.27.3-.356c.084-.056.229-.024.347-.024h9.116c.1,0,.234-.035.3.014.135.1.33.246.325.367s-.2.295-.347.342a2.131,2.131,0,0,1-.615.016Z"/>
    <path d="M10.163,18.407H5.651a.8.8,0,0,1-.389-.034.525.525,0,0,1-.254-.352c0-.116.156-.256.276-.331.087-.054.23-.021.348-.021h9.157c.1,0,.231-.033.3.015.13.087.314.223.314.339s-.165.282-.3.362c-.1.06-.258.022-.391.022Z"/>
    <path d="M10.142,8.407c1.549,0,3.1,0,4.646,0,.265,0,.539-.007.548.345s-.253.381-.525.381H5.43c-.269,0-.533-.029-.525-.379s.284-.346.546-.346Q7.8,8.41,10.142,8.407Z"/>
    <path d="M10.163,20.74c-1.548,0-3.1,0-4.645,0-.267,0-.547-.007-.546-.349,0-.324.267-.377.541-.377h9.379c.269,0,.521.04.513.394s-.267.33-.509.33Z"/>
  </g>
</svg>
