<svg width="30px" height="30px" id="Ebene_1" data-name="Ebene 1" xmlns="http://www.w3.org/2000/svg" viewBox="0 0 34.167 31.458">
  <title>profile</title>
  <g>
    <path d="M.444,30.981c0-.768-.044-1.516.019-2.255a2.191,2.191,0,0,1,.42-.993,11.344,11.344,0,0,1,3.388-3.014,25.446,25.446,0,0,1,4.812-2.348c.321-.119.392-.278.419-.606a3.453,3.453,0,0,0-.883-2.837,6.413,6.413,0,0,1-1.328-3.071A.665.665,0,0,0,7,15.462a1.978,1.978,0,0,1-.769-2.914.712.712,0,0,0,.058-.536,13.889,13.889,0,0,1-.7-4.487,6.553,6.553,0,0,1,6.01-6.5,6.683,6.683,0,0,1,5.046,1.341,11.331,11.331,0,0,0,1.735,1.16,3.964,3.964,0,0,1,2.366,3.45,25.407,25.407,0,0,1-.112,2.658c-.071.913-.2,1.821-.285,2.732a.948.948,0,0,0,.061.445,2.389,2.389,0,0,1-1.137,3.041.439.439,0,0,0-.209.3,6.226,6.226,0,0,1-1.909,3.77,1.039,1.039,0,0,0-.368.884c.035.448-.141,1.012.072,1.319s.79.349,1.21.5a18.378,18.378,0,0,1,6.457,3.666c.226.212.428.448.639.674a3.163,3.163,0,0,1,.977,2.637,11.737,11.737,0,0,0-.009,1.382Zm24.947-.672A3.01,3.01,0,0,0,24.313,27.1a18.12,18.12,0,0,0-2.454-1.921,20.891,20.891,0,0,0-5.126-2.258c-.53-.168-.627-.3-.629-.849s-.036-1.1.015-1.648a1.339,1.339,0,0,1,.337-.772,5.846,5.846,0,0,0,1.943-4,.593.593,0,0,1,.365-.41,1.534,1.534,0,0,0,.946-2.2.817.817,0,0,1-.094-.436c.141-1.656.3-3.311.444-4.966a3.262,3.262,0,0,0-1.422-3.11,4.956,4.956,0,0,0-1.017-.595,3.589,3.589,0,0,1-1.1-.745,5.933,5.933,0,0,0-4.73-1.474A5.886,5.886,0,0,0,6.282,7.593,13.258,13.258,0,0,0,7,11.907,1.05,1.05,0,0,1,6.808,13a1.184,1.184,0,0,0,.535,1.812.852.852,0,0,1,.632.78,7.287,7.287,0,0,0,1.889,3.8,1.286,1.286,0,0,1,.3.744c.041.675.006,1.353.017,2.03a.684.684,0,0,1-.511.725c-.685.257-1.366.528-2.032.831A19.642,19.642,0,0,0,2.372,27.05a3.11,3.11,0,0,0-1.178,3.259Z"/>
    <path d="M27.011,28.816l.633-.255a1.741,1.741,0,0,1,.154.357c.08.486.405.564.8.461.14-.037.349-.2.353-.3a1.174,1.174,0,0,1,1.073-1.139,1.137,1.137,0,0,1,.748.229.525.525,0,0,0,.76-.1c.214-.205.325-.408.117-.645-.508-.578-.141-1.087.153-1.551.109-.17.466-.213.72-.254.3-.047.486-.125.517-.476s-.03-.557-.389-.666c-.221-.068-.513-.164-.6-.337a2.015,2.015,0,0,1-.244-1.011c.013-.225.259-.456.441-.645a.474.474,0,0,0,.043-.7c-.171-.259-.365-.362-.624-.209-.717.426-1.153-.124-1.6-.493-.144-.121-.069-.5-.1-.756-.03-.222.035-.466-.3-.566s-.574-.085-.753.262c-.106.207-.248.489-.431.544a2.341,2.341,0,0,1-1.122.074c-.23-.05-.43-.342-.593-.563a.413.413,0,0,0-.607-.132c-.233.111-.427.2-.337.521a1.191,1.191,0,0,1,.034.5,2.044,2.044,0,0,1-.2.5c-.022.046-.1.066-.125.111a1.062,1.062,0,0,1-1.375.434c-.324-.105-.374.15-.474.341s-.222.388.038.547a1.2,1.2,0,0,1,.44,1.6h-.581c-.016-.021-.049-.048-.045-.065.159-.62-.222-.98-.618-1.351a.546.546,0,0,1-.1-.431,2.459,2.459,0,0,1,.232-.586c.4-.859.405-.859,1.333-.725a.614.614,0,0,0,.752-.722c-.086-1.042-.294-.8.771-1.321.025-.012.051-.025.077-.036.734-.292.734-.292,1.257.3.471.532.79.516,1.183-.06.459-.672.459-.672,1.244-.452.054.015.11.023.164.04.8.248.8.248.827,1.08.021.721.242.883.942.688.752-.209.752-.209,1.206.449.024.035.049.069.072.1.51.772.51.772-.072,1.5-.365.457-.3.731.22.969.8.364.8.364.713,1.224-.008.071-.013.141-.021.211-.1.8-.1.8-.879.954-.714.144-.8.324-.485.969.33.666.33.666-.208,1.207-.04.04-.079.08-.12.119-.71.682-.71.681-1.559.228-.418-.223-.669-.11-.791.358-.23.879-.23.879-1.114.941-1.016.072-1.016.072-1.381-.866C27.126,29.1,27.078,28.985,27.011,28.816Z"/>
    <path d="M25.5,24.461a2.6,2.6,0,1,1,2.573,2.6A2.61,2.61,0,0,1,25.5,24.461Zm4.5.024a1.922,1.922,0,0,0-1.881-1.933,1.967,1.967,0,0,0-1.925,1.909,1.933,1.933,0,0,0,1.881,1.9A1.887,1.887,0,0,0,30,24.485Z"/>
  </g>
</svg>
