<?xml version="1.0" encoding="utf-8"?>
<!-- Generator: Adobe Illustrator 23.0.2, SVG Export Plug-In . SVG Version: 6.00 Build 0)  -->
<svg width="30px" height="30px" version="1.1" id="Ebene_1" xmlns="http://www.w3.org/2000/svg" xmlns:xlink="http://www.w3.org/1999/xlink" x="0px" y="0px"
	 viewBox="0 0 20 20" style="enable-background:new 0 0 20 20;" xml:space="preserve">
<g>
	<path d="M8.9,12.6c0-1.3,0-2.6,0-3.9c0-0.3,0-0.6,0-0.9c0-0.5,0.3-0.7,0.8-0.8c0.5,0,0.8,0.2,0.9,0.6c0.1,0.3,0,0.5,0.1,0.8
		c0,0.6,0,1.3,0,1.9c0.9-0.2,1.1-0.2,1.4,0.5c0.7-0.4,1.3-0.2,1.6,0.5c0.2,0,0.4-0.1,0.6-0.1c0.6,0,0.9,0.4,1,1c0,0.7,0,1.4,0,2.1
		c0,0.4-0.2,0.7-0.4,1c-0.2,0.5-0.5,0.9-0.8,1.4C14,16.9,14,17.1,14,17.2c0,0.7,0,1.4,0,2.1c0,0,0,0,0,0.1c-1.6,0-3.2,0-4.8,0
		c0-0.7,0-1.3,0-1.9c0-0.3-0.1-0.6-0.3-0.8c-0.3-0.4-0.5-0.8-0.7-1.3c-0.5-1.1-0.9-2.2-1.3-3.2c-0.1-0.2-0.1-0.4-0.1-0.6
		c0-0.4,0.2-0.7,0.6-0.8c0.4-0.1,0.8,0,1,0.4c0.2,0.3,0.3,0.7,0.4,1C8.8,12.3,8.8,12.4,8.9,12.6z M13.4,17.1
		c0.2-0.5,0.4-0.9,0.6-1.2c0.7-0.9,0.9-1.9,0.8-2.9c0-0.3,0-0.6-0.1-0.8c-0.1-0.3-0.2-0.4-0.5-0.4c-0.2,0-0.4,0.1-0.4,0.3
		c0,0.1-0.2,0.2-0.3,0.2c-0.1,0-0.2-0.2-0.2-0.3c0-0.1,0-0.2-0.1-0.4c-0.1-0.4-0.2-0.5-0.6-0.4c-0.3,0-0.3,0.2-0.4,0.4
		c0,0.1-0.2,0.2-0.2,0.2c-0.1,0-0.2-0.1-0.2-0.2c0-0.1,0-0.2-0.1-0.3c-0.1-0.2-0.1-0.4-0.4-0.4c-0.3,0-0.5,0.1-0.6,0.3
		c-0.1,0.1-0.1,0.3-0.3,0.2c-0.2,0-0.2-0.2-0.2-0.3c0-0.8,0-1.6,0-2.4c0-0.2,0-0.5,0-0.7c0-0.2-0.1-0.3-0.4-0.3
		c-0.4,0-0.5,0.1-0.5,0.5c0,1.9,0,3.8,0.1,5.6c0,0.1,0,0.2,0,0.2c0,0.1-0.1,0.2-0.2,0.2c-0.1,0-0.2,0-0.2-0.1
		c-0.1-0.1-0.1-0.2-0.2-0.4c-0.3-0.7-0.5-1.4-0.8-2.1c-0.1-0.3-0.3-0.4-0.5-0.3c-0.2,0.1-0.3,0.3-0.3,0.6c0,0.1,0,0.1,0.1,0.2
		c0.5,1.2,0.9,2.3,1.4,3.5c0.2,0.4,0.4,0.7,0.6,1c0.1,0.2,0.2,0.4,0.3,0.5c0,0.1,0.1,0.2,0.2,0.2C11,17.1,12.3,17.1,13.4,17.1z
		 M13.5,17.6c-1.3,0-2.6,0-3.9,0c0,0.5,0,0.9,0,1.4c1.3,0,2.6,0,3.9,0C13.5,18.5,13.5,18.1,13.5,17.6z"/>
	<path d="M7.6,6.8C7.8,6,7.9,5.3,8,4.5c0-0.2,0-0.3-0.2-0.4C7.4,3.6,6.9,3,6.4,2.5c0.2,0,0.5-0.1,0.8-0.1c0.4-0.1,0.9-0.1,1.3-0.2
		c0.2,0,0.2-0.1,0.3-0.2c0.3-0.6,0.6-1.2,0.9-1.8c0-0.1,0.1-0.2,0.2-0.3c0.1,0.3,0.3,0.5,0.4,0.7c0.2,0.4,0.4,0.9,0.7,1.3
		c0,0.1,0.2,0.2,0.3,0.2c0.7,0.1,1.4,0.2,2.1,0.3c0.1,0,0.1,0,0.2,0c-0.4,0.4-0.8,0.9-1.2,1.3c-0.4,0.3-0.6,0.6-0.4,1.2
		C12,5.5,12,6.1,12.1,6.8c-0.1,0-0.2-0.1-0.3-0.1c-0.6-0.3-1.2-0.6-1.8-0.9c-0.2-0.1-0.3-0.1-0.4,0c-0.6,0.3-1.2,0.7-1.8,1
		C7.8,6.7,7.7,6.7,7.6,6.8z M11.5,6c-0.1-0.5-0.2-1-0.3-1.5c-0.1-0.3,0-0.5,0.2-0.7c0.4-0.3,0.7-0.7,1-1c-0.6-0.1-1.1-0.2-1.6-0.2
		c-0.1,0-0.2-0.1-0.3-0.2C10.4,2,10.2,1.6,10,1.2C10,1.1,9.9,1,9.9,0.9c-0.3,0.5-0.5,1-0.7,1.5C9.1,2.5,9,2.6,8.8,2.6
		c-0.5,0.1-1,0.1-1.5,0.2c0.3,0.3,0.5,0.7,0.9,0.9C8.5,4,8.6,4.3,8.5,4.7C8.4,5.1,8.3,5.5,8.2,6c0.1-0.1,0.2-0.1,0.3-0.1
		c0.4-0.2,0.8-0.4,1.1-0.6c0.2-0.1,0.3-0.1,0.5,0C10.6,5.5,11,5.7,11.5,6z"/>
	<path d="M19.9,2.7c-0.3,0.4-0.7,0.7-1,1.1c-0.1,0.1-0.2,0.2-0.1,0.4c0.1,0.5,0.2,1,0.3,1.5c-0.5-0.2-0.9-0.4-1.3-0.7
		c-0.2-0.1-0.3-0.1-0.5,0c-0.4,0.2-0.8,0.4-1.3,0.7c0.1-0.5,0.2-1,0.3-1.5c0-0.2,0-0.3-0.1-0.4c-0.3-0.3-0.7-0.7-1-1.1
		c0.4-0.1,0.9-0.1,1.3-0.2c0.2,0,0.4-0.1,0.5-0.3c0.2-0.4,0.4-0.8,0.6-1.3c0.2,0.5,0.4,0.9,0.6,1.3c0.1,0.2,0.2,0.3,0.5,0.3
		C19.1,2.6,19.5,2.7,19.9,2.7z M16.5,4.9c0.3-0.1,0.5-0.2,0.7-0.4c0.2-0.1,0.3-0.1,0.5,0c0.2,0.1,0.5,0.2,0.7,0.4
		c0-0.3-0.1-0.6-0.1-0.8c0-0.2,0-0.3,0.1-0.4c0.2-0.2,0.4-0.4,0.6-0.6C18.7,3,18.5,3,18.2,2.9c-0.2,0-0.3-0.1-0.4-0.3
		c-0.1-0.2-0.2-0.5-0.4-0.7c-0.2,0.3-0.3,0.6-0.4,0.8c0,0.1-0.2,0.2-0.3,0.2C16.6,3,16.3,3,16,3.1c0.2,0.2,0.4,0.4,0.6,0.6
		c0.1,0.1,0.2,0.2,0.1,0.4C16.6,4.3,16.6,4.6,16.5,4.9z"/>
	<path d="M4.9,2.8c-0.3,0.4-0.7,0.7-1,1C3.7,4,3.7,4.1,3.7,4.3c0.1,0.4,0.2,0.9,0.2,1.4C3.6,5.6,3.3,5.4,3,5.2
		c-0.4-0.3-0.8-0.3-1.2,0C1.5,5.4,1.2,5.6,0.8,5.7C0.9,5.3,1,4.8,1.1,4.4c0.1-0.3,0-0.4-0.2-0.6c-0.3-0.3-0.6-0.6-0.9-1
		c0.4-0.1,0.8-0.1,1.2-0.2c0.3,0,0.5-0.1,0.6-0.4C2,1.8,2.2,1.4,2.4,1c0.2,0.5,0.5,0.9,0.7,1.4c0,0.1,0.2,0.2,0.3,0.2
		C3.9,2.6,4.3,2.7,4.9,2.8z M3.4,4.9C3.3,4.6,3.3,4.3,3.2,4.1c0-0.2,0-0.3,0.1-0.4C3.5,3.5,3.7,3.3,4,3.1C3.6,3.1,3.4,3,3.1,3
		C2.9,3,2.8,2.9,2.8,2.7C2.7,2.5,2.5,2.3,2.4,2C2.3,2.3,2.1,2.5,2,2.7C2,2.9,1.9,3,1.7,3C1.4,3,1.1,3.1,0.9,3.1
		c0.2,0.2,0.4,0.4,0.6,0.6C1.5,3.8,1.6,4,1.6,4.1c0,0.3-0.1,0.5-0.1,0.9C1.7,4.8,2,4.6,2.2,4.5c0.1,0,0.2,0,0.3,0
		C2.8,4.6,3.1,4.8,3.4,4.9z"/>
	<path d="M1,11.3c0.7,0,1.3,0,2,0c0,0.1,0,0.3,0,0.4c-0.6,0-1.3,0-2,0C1,11.5,1,11.4,1,11.3z"/>
	<path d="M0.3,10.7c0-0.1,0-0.3,0-0.4c0.6,0,1.3,0,1.9,0c0,0.1,0,0.3,0,0.4C1.6,10.7,0.9,10.7,0.3,10.7z"/>
	<path d="M18.8,12.2c0,0.1,0,0.3,0,0.4c-0.6,0-1.3,0-1.9,0c0-0.1,0-0.3,0-0.4C17.5,12.2,18.2,12.2,18.8,12.2z"/>
	<path d="M4.4,14.2c0.2,0.2,0.5,0.5,0.7,0.7C5,15,4.9,15.1,4.8,15.2c-0.2-0.2-0.5-0.5-0.7-0.7C4.2,14.4,4.3,14.3,4.4,14.2z"/>
	<path d="M5.3,14.8c0.2-0.2,0.5-0.4,0.7-0.7c0.1,0.1,0.2,0.2,0.3,0.3c-0.2,0.2-0.5,0.5-0.7,0.7C5.5,15,5.4,14.9,5.3,14.8z"/>
	<path d="M5.3,7.9c0,0-0.1,0-0.1,0.1C5,8,4.8,8,4.7,7.8c0-0.1,0-0.3,0-0.4c0.1-0.1,0.3-0.1,0.4-0.1c0.2,0.1,0.2,0.2,0.2,0.4
		C5.4,7.8,5.3,7.8,5.3,7.9C5.3,7.9,5.3,7.9,5.3,7.9z"/>
	<path d="M4.7,8.5c-0.1,0-0.2,0.1-0.3,0.1c-0.1,0-0.3-0.1-0.4-0.2c0-0.1,0-0.3,0.1-0.4c0.1-0.1,0.3-0.1,0.4-0.1
		c0.1,0.1,0.2,0.2,0.2,0.4C4.8,8.3,4.8,8.4,4.7,8.5C4.7,8.5,4.7,8.5,4.7,8.5z"/>
	<path d="M5.3,7.9C5.3,7.9,5.3,7.9,5.3,7.9c0.1-0.1,0.2-0.1,0.2-0.1c0.1,0,0.3,0.1,0.4,0.2c0.1,0.1,0,0.3-0.1,0.4
		c-0.1,0.1-0.3,0.1-0.4,0C5.3,8.4,5.3,8.2,5.3,8C5.2,8,5.3,7.9,5.3,7.9z"/>
	<path d="M4.7,8.5C4.7,8.5,4.7,8.5,4.7,8.5c0.2-0.1,0.3-0.2,0.5-0.1c0.1,0.1,0.2,0.2,0.2,0.3C5.4,8.8,5.2,9,5.1,9C5,9.1,4.9,9,4.8,9
		C4.6,8.8,4.6,8.6,4.7,8.5z"/>
	<path d="M4,12.6C4,12.8,3.8,13,3.6,13c-0.2,0-0.3-0.1-0.4-0.4c0-0.2,0.2-0.4,0.4-0.4C3.8,12.2,4,12.4,4,12.6z"/>
	<path d="M4.4,16.3c-0.1-0.1-0.2-0.2-0.3-0.2c0.3-0.3,0.5-0.5,0.7-0.8c0.1,0.1,0.2,0.2,0.3,0.3C4.9,15.9,4.6,16.1,4.4,16.3z"/>
	<path d="M16.9,16.9c-0.1,0-0.1,0.1-0.2,0.1c-0.2,0.1-0.4,0-0.4-0.2c0-0.1,0-0.3,0-0.4c0.1-0.1,0.3-0.1,0.4-0.1
		c0.2,0,0.3,0.2,0.2,0.4C16.9,16.8,16.9,16.8,16.9,16.9C16.9,16.9,16.9,16.9,16.9,16.9z"/>
	<path d="M16.9,16.9C16.9,16.9,16.9,16.9,16.9,16.9c0.2,0,0.4,0,0.6,0c0,0,0,0,0,0c0,0,0,0.1,0.1,0.1c0.1,0.2,0.1,0.4-0.1,0.4
		c-0.1,0.1-0.3,0.1-0.4,0c-0.2-0.1-0.2-0.2-0.2-0.4C16.8,17,16.8,16.9,16.9,16.9z"/>
	<path d="M15.6,8.7c0,0.2-0.2,0.4-0.4,0.4c-0.2,0-0.4-0.2-0.4-0.4c0-0.2,0.1-0.4,0.4-0.4C15.4,8.3,15.5,8.5,15.6,8.7z"/>
	<path d="M17.3,8.4c0.2,0,0.4,0.2,0.4,0.4c0,0.2-0.2,0.4-0.4,0.3c-0.2,0-0.3-0.2-0.3-0.4C16.9,8.5,17.1,8.3,17.3,8.4z"/>
	<path d="M17.4,16.4c0.1,0,0.1-0.1,0.2-0.1c0.2,0,0.4,0,0.4,0.1c0.1,0.1,0.1,0.3,0,0.4c-0.1,0.2-0.3,0.2-0.4,0.1
		c-0.1,0-0.1-0.1-0.2-0.1c0,0,0,0,0,0C17.4,16.7,17.4,16.5,17.4,16.4L17.4,16.4z"/>
	<path d="M16.2,9.1c-0.2,0-0.4-0.1-0.4-0.4c0-0.2,0.1-0.4,0.4-0.4c0.2,0,0.3,0.1,0.4,0.3C16.6,8.9,16.5,9.1,16.2,9.1z"/>
	<path d="M4.7,13c-0.2,0-0.4-0.2-0.4-0.4c0-0.2,0.1-0.3,0.3-0.4c0.2,0,0.4,0.1,0.4,0.4C5,12.8,4.9,13,4.7,13z"/>
	<path d="M2.6,13c-0.2,0-0.4-0.2-0.4-0.4c0-0.2,0.1-0.3,0.3-0.4c0.2,0,0.4,0.1,0.4,0.4C2.9,12.8,2.8,13,2.6,13z"/>
	<path d="M17.4,16.4c-0.1,0-0.2,0.1-0.2,0c-0.1-0.1-0.3-0.1-0.4-0.2c0-0.1,0-0.3,0.1-0.4c0.1-0.1,0.3-0.1,0.4,0
		c0.1,0.1,0.1,0.3,0.1,0.4C17.5,16.2,17.5,16.3,17.4,16.4C17.4,16.4,17.4,16.4,17.4,16.4z"/>
	<path d="M6.3,16.1c-0.1,0.1-0.2,0.2-0.2,0.2c-0.2-0.2-0.5-0.5-0.7-0.7c0.1,0,0.2-0.1,0.3-0.2C5.9,15.6,6.1,15.8,6.3,16.1z"/>
</g>
</svg>
